<?xml version="1.0" standalone="no"?>
<!DOCTYPE svg PUBLIC "-//W3C//DTD SVG 20010904//EN"
 "http://www.w3.org/TR/2001/REC-SVG-20010904/DTD/svg10.dtd">
<svg version="1.0" xmlns="http://www.w3.org/2000/svg"
 width="1350.000000pt" height="2028.000000pt" viewBox="0 0 1350.000000 2028.000000"
 preserveAspectRatio="xMidYMid meet">
<metadata>
Created by potrace 1.10, written by Peter Selinger 2001-2011
</metadata>
<g transform="translate(0.000000,2028.000000) scale(0.100000,-0.100000)"
style="background:black" stroke="none">
<path fill="#ff0000" style="fill:#ff0000" d="M2549 14482 c-45 -21 -82 -64 -98 -114 -10 -29 -13 -616 -15 -2555
-2 -1385 -7 -2534 -11 -2553 -5 -23 -25 -52 -59 -85 -85 -83 -167 -213 -185
-295 -7 -30 -21 -74 -33 -98 -18 -39 -19 -56 -15 -195 6 -156 18 -222 59 -324
51 -127 171 -270 286 -341 24 -15 57 -36 75 -47 18 -11 59 -29 92 -39 33 -10
69 -24 80 -31 30 -19 196 -39 257 -31 73 10 138 26 169 42 14 7 46 18 72 23
25 6 66 24 90 41 25 16 48 30 52 30 10 0 113 86 150 126 90 95 167 229 194
334 30 117 15 494 -21 516 -4 3 -8 13 -8 22 0 18 -75 145 -107 182 -10 11 -41
44 -69 73 -27 28 -60 66 -72 84 l-22 31 0 2085 c0 2038 0 2085 19 2108 l19 24
3244 3 c1783 1 3262 0 3286 -3 28 -4 47 -14 57 -29 13 -19 15 -424 15 -3220 0
-2521 -2 -3202 -12 -3213 -7 -8 -24 -20 -38 -25 -28 -11 -4635 -13 -4734 -2
-57 7 -59 8 -100 63 -46 63 -172 190 -234 238 -73 55 -183 94 -296 104 -140
13 -327 2 -396 -24 -54 -20 -150 -70 -180 -94 -125 -101 -235 -241 -277 -353
-51 -135 -56 -169 -51 -336 5 -145 8 -168 37 -256 19 -59 45 -115 66 -143 19
-25 35 -51 35 -58 1 -32 225 -237 259 -237 9 0 35 -14 59 -30 86 -58 263 -87
424 -70 113 12 177 31 238 70 26 17 54 30 62 30 9 0 21 7 29 16 7 8 29 24 48
35 20 10 48 29 63 41 l27 21 2173 0 c1195 -1 2509 2 2920 5 l746 7 44 30 c32
23 49 45 65 85 l22 55 0 4060 c0 3346 -2 4067 -13 4097 -22 61 -65 105 -121
122 -45 14 -488 15 -4190 15 -3851 0 -4143 -2 -4176 -17z m8414 -4222 l2
-4150 -2969 0 -2969 0 -26 -28 c-58 -65 -172 -133 -281 -168 -43 -14 -87 -18
-200 -18 -147 0 -172 5 -277 50 -17 8 -36 14 -42 14 -6 0 -11 4 -11 9 0 5 -10
13 -23 17 -55 17 -247 197 -247 232 0 4 -5 13 -11 19 -25 25 -79 167 -79 208
0 23 -7 50 -15 61 -20 27 -21 201 0 240 8 16 15 46 15 66 0 41 81 217 106 231
8 4 14 13 14 19 0 19 106 126 175 176 25 18 141 72 155 72 8 0 29 8 45 17 24
14 58 17 180 17 122 0 156 -3 180 -17 17 -9 38 -17 48 -17 18 0 126 -50 149
-69 7 -6 36 -29 64 -50 61 -47 129 -132 174 -217 l31 -61 1787 -1 c3036 -3
3204 -3 3208 1 2 2 4 1503 4 3336 l0 3332 -3392 2 c-1866 1 -3401 6 -3410 10
-12 6 -19 3 -25 -10 -4 -10 -7 -999 -5 -2198 l2 -2180 51 -35 c91 -61 193
-189 233 -290 10 -25 24 -60 32 -78 21 -49 19 -332 -2 -398 -30 -92 -73 -185
-91 -197 -7 -4 -13 -15 -13 -23 0 -9 -12 -29 -27 -44 -16 -16 -41 -43 -58 -60
-66 -69 -188 -148 -285 -182 -81 -29 -230 -41 -333 -27 -51 6 -96 16 -102 20
-5 5 -16 9 -25 9 -48 0 -217 109 -295 190 -22 23 -48 49 -57 58 -10 9 -18 22
-18 29 0 6 -6 18 -14 26 -25 25 -64 123 -91 229 -14 52 -16 93 -12 195 2 70
10 144 17 163 24 64 41 105 55 130 7 14 21 40 32 59 24 45 57 85 118 142 28
26 58 56 68 66 17 17 18 135 17 2550 0 1392 -3 2558 -6 2591 -4 33 -4 66 -2
74 5 11 734 13 4227 11 l4221 -3 3 -4150z"/>
<path fill="#ff0000" style="fill:#ff0000" d="M4255 12451 c-65 -16 -93 -42 -118 -111 -15 -40 -17 -102 -17 -518 0
-321 3 -472 10 -472 6 0 10 -6 8 -12 -8 -43 33 -109 82 -132 18 -8 259 -12
841 -16 642 -4 819 -8 831 -18 10 -7 18 -38 22 -75 3 -34 7 -753 8 -1597 1
-844 5 -1539 8 -1545 4 -5 10 -27 13 -49 9 -55 27 -77 90 -109 l55 -27 637 0
637 0 59 35 c32 20 62 42 66 48 25 39 29 244 27 1709 -1 872 3 1549 8 1570 7
32 14 39 46 47 23 7 327 11 809 11 498 0 790 4 821 11 60 12 110 60 122 115
15 63 14 974 -1 1022 -14 48 -60 95 -108 111 -39 13 -4903 15 -4956 2z m4990
-71 c7 0 9 -191 8 -557 l-2 -558 -43 1 c-24 1 -432 2 -908 3 l-865 2 -2 -1708
-2 -1708 -43 1 c-167 5 -1283 3 -1320 -2 -28 -4 -48 -2 -52 4 -8 14 -8 3271 0
3350 6 52 4 59 -12 63 -11 2 -417 2 -904 -1 -487 -3 -891 -3 -898 -1 -10 3
-12 12 -6 30 13 47 17 919 4 1000 -8 49 -8 76 -2 80 7 4 4446 5 5047 1z"/>
</g>
</svg>
