<?xml version="1.0" encoding="utf-8"?>
<!-- Generator: Adobe Illustrator 22.0.0, SVG Export Plug-In . SVG Version: 6.00 Build 0)  -->
<svg version="1.1" id="Layer_1" xmlns="http://www.w3.org/2000/svg" xmlns:xlink="http://www.w3.org/1999/xlink" x="0px" y="0px"
	 viewBox="0 0 371 150" style="enable-background:new 0 0 371 150;" xml:space="preserve">
<style type="text/css">
	.st0{display:none;}
	.st1{display:inline;fill:#EE1E41;}
	.st2{fill:#EE1E41;}
	.st3{fill:#111;}
</style>
<g id="Layer_2" class="st0">
	<rect x="0.3" class="st1" width="370" height="150"/>
</g>
<g>
	<path class="st3" d="M61.3,67.1h-4.5v-7h4.5v-9h9.8v9h6v7h-6L71,86c0,2.1,0.9,3.1,3.4,3.1h2.9v7.2h-4.9c-7.6,0-11.2-3.2-11.2-12.7L61.3,67.1z"
		/>
</g>
<g>
	<path class="st3" d="M183.7,76.7c0-4.8-0.2-10.3-4.4-10.1c-2.4,0.1-7.5,1.6-7.3,10v18.8h-9.8V76.5c0.1-6-0.5-10.3-4.2-10.1
		c-4,0.1-8.2,2.5-8.1,10.3v18.8h-9.7V59.9h9.7v5.3c1.9-3,6.6-5.7,11.4-5.6c4.9,0.1,7.5,1.8,9.7,6.2c2.1-3.9,6.6-6.4,11.2-6.3
		c9.8,0.3,11.2,5.8,11.2,15.6v20.3h-9.8L183.7,76.7L183.7,76.7z"/>
</g>
<g>
	<path class="st3" d="M281.1,96.3c-10.8,0-17.9-6.4-17.9-18s7-18.7,17.9-18.7c10.7,0,17.9,6.6,17.9,17.7c0,1,0,1.5,0,2.7L273.9,80
		c-0.1,4.8,2.3,10,7.1,10.2c4.5,0.2,7-1.6,7.8-5h9.3C296.4,92.3,290.7,96.3,281.1,96.3z M273.5,73.7h15.7c0-4.9-2.6-8.8-7.9-8.8
		C276.8,64.9,273.7,69.2,273.5,73.7z"/>
</g>
<g>
	<path class="st3" d="M234.6,95.2l-9.9-0.1c0-1.6,0-2.3,0-4.2c-2.5,3.8-6.8,4.9-12,4.9c-10.5,0-12-7.3-12-10.5c0-4.9,2.7-8.1,6.5-9.7
		c4.9-2,8.5-2.4,17.4-2V73c0-1.6,0.3-4.2-1.2-6.4c-1.2-1.7-4.1-1.9-5.8-1.9c-3.2,0.1-6.1,1.2-6.8,5.6h-8.6c1-8,5.7-11,16.4-11
		c2.9,0,4.3,0.1,6.8,0.7c2.5,0.6,4.4,1.5,5.8,2.7c1.4,1.2,2.4,2.5,2.9,3.9c0.5,1.4,0.7,4,0.7,7.9v14.4
		C234.6,91.6,234.6,93.2,234.6,95.2z M224.6,79.3c-6-0.1-14-0.5-14,5.9c0,2.2,1.6,4.9,6.5,4.9c2.1,0,5-0.9,6.4-2.3
		c1.5-1.5,1.2-4.2,1.2-7.2L224.6,79.3L224.6,79.3z"/>
</g>
<path class="st2" d="M137.8,74.5c-0.8,13.1-6.8,21-20.3,23c-9.7,1.4-14.6,0.3-17.1,0c-5.5-0.6-15.2-3.6-19.1-14.6
	c-5.2-14.6,2-23.2,4.8-25.7c5.5-4.7,7.9-5.2,9.6-5.9c1.7-0.6,8.4-0.3,8.4-0.3s-2.5,2.7-5.8,4.5c-1.9,1-4,2.9-5.4,4.9
	c-2.8,4.4-4,8.8-3.5,14.1c0.5,4.9,3.1,8,7.7,11.4s10.8,3.3,14.3,3.3s11-2.1,14.3-9.6c2.9-6.5,0-13.1-1.9-15.6
	c-1.4-1.8-4.6-4.4-7.9-4.4c-2.9,0-6.6,0.3-9.7,3.4c-2.9,2.9-3.6,6.6-2.2,10.4c1.9,5.4,10.2,2.9,8.4-1.3c-0.6-1.4-2.1-1.9-3.8-1.9
	s-3.6-1-3.6-1s3.8-4.2,7.2-4c2.3,0.2,4.6,1.6,5.5,4.4c1.3,3.9,0.6,6.6-0.1,8c-1.8,3.2-4.3,6.4-10.7,5.5c-6.4-1-8.8-4.5-10.4-7.9
	c-1.9-4-0.8-7.8-0.2-9.8c1.4-4.5,5.7-9.8,10.7-12.7c4.6-2.7,9.7-1.6,12.9-1.2c4,0.5,10.5,3.7,13.1,6.8
	C135.3,61.7,138.3,66.3,137.8,74.5z"/>
<g>
	<path class="st3" d="M244.1,67.1h-4.5v-7h4.5v-9h9.8v9h6v7h-6L253.8,86c0,2.1,0.9,3.1,3.4,3.1h2.9v7.2h-4.9c-7.6,0-11.2-3.2-11.2-12.7V67.1z"/>
</g>
</svg>
